<svg xmlns="http://www.w3.org/2000/svg" version="1.1" xmlns:xlink="http://www.w3.org/1999/xlink" xmlns:svgjs="http://svgjs.com/svgjs" width="512" height="512" x="0" y="0" viewBox="0 0 32 32" style="enable-background:new 0 0 512 512" xml:space="preserve" class=""><g><g data-name="34-Add-image"><path d="M29 24h-3v-3a1 1 0 0 0-2 0v3h-3a1 1 0 0 0 0 2h3v3a1 1 0 0 0 2 0v-3h3a1 1 0 0 0 0-2zM17 24H5a1 1 0 0 1-1-1V5a1 1 0 0 1 1-1h18a1 1 0 0 1 1 1v12a1 1 0 0 0 2 0V5a3 3 0 0 0-3-3H5a3 3 0 0 0-3 3v18a3 3 0 0 0 3 3h12a1 1 0 0 0 0-2z" fill="#000000" data-original="#000000"></path><circle cx="11" cy="8.5" r="2.5" fill="#000000" data-original="#000000"></circle><path d="M7.29 14.29 6 15.59V22h16v-6.41l-4.29-4.3a1 1 0 0 0-1.42 0L11 16.59l-2.29-2.3a1 1 0 0 0-1.42 0z" fill="#000000" data-original="#000000"></path></g></g></svg>