<svg width="12" height="10" viewBox="0 0 12 10" fill="none" xmlns="http://www.w3.org/2000/svg">
<path d="M4.44443 3.07925L5.92863 0.194662C5.95714 0.136632 6.00168 0.08762 6.05719 0.0532051C6.11269 0.0187901 6.17694 0.000355512 6.2426 0C6.36696 0 6.49133 0.064665 6.5586 0.194662L8.0428 3.07925L11.3714 3.54324C11.4543 3.55604 11.5303 3.59652 11.5864 3.65785C11.6424 3.71918 11.6752 3.7976 11.6792 3.8799C11.684 3.93469 11.676 3.98982 11.656 4.04119C11.636 4.09256 11.6045 4.13883 11.5637 4.17656L9.16955 6.41384L9.7336 9.56709C9.7866 9.86242 9.48895 10.0937 9.22663 9.96175L6.2426 8.45778L3.25993 9.96175C3.22873 9.97764 3.19529 9.98887 3.16071 9.99508C2.92829 10.0351 2.70675 9.82575 2.75296 9.56709L3.31701 6.41384L0.923536 4.17656C0.886326 4.14203 0.856749 4.10036 0.836641 4.05414C0.816534 4.00793 0.806325 3.95815 0.806648 3.9079C0.806683 3.83686 0.826669 3.7672 0.864412 3.70657C0.891187 3.66262 0.92768 3.62513 0.9712 3.59686C1.01472 3.56859 1.06415 3.55027 1.11586 3.54324L4.44443 3.07925ZM6.2426 7.68447C6.29745 7.68425 6.35155 7.69706 6.40026 7.7218L8.90519 8.98444L8.43356 6.34651C8.42243 6.28584 8.42664 6.22341 8.44584 6.16472C8.46503 6.10602 8.49862 6.05284 8.54365 6.00985L10.5192 4.16323L7.76554 3.77924C7.70852 3.77079 7.65443 3.74891 7.60792 3.71547C7.56141 3.68204 7.52385 3.63804 7.49846 3.58724L6.24328 1.14864L6.2426 1.15064V7.6838V7.68447Z" fill="#F7BA2D"/>
</svg>
