<svg width="12" height="10" viewBox="0 0 12 10" fill="none" xmlns="http://www.w3.org/2000/svg">
<path d="M2.58161 9.5667C2.5286 9.86268 2.82627 10.094 3.08859 9.962L6.07207 8.45812L9.05487 9.962C9.3172 10.094 9.61487 9.86268 9.56186 9.56737L8.99779 6.41427L11.3914 4.17711C11.6156 3.96779 11.5001 3.58516 11.1997 3.54383L7.871 3.07986L6.38673 0.195414C6.35846 0.136945 6.31385 0.0875446 6.25809 0.0529534C6.20233 0.0183622 6.13771 0 6.07173 0C6.00576 0 5.94114 0.0183622 5.88538 0.0529534C5.82962 0.0875446 5.78501 0.136945 5.75674 0.195414L4.27247 3.08053L0.943752 3.54449C0.644045 3.58582 0.527832 3.96846 0.751423 4.17778L3.14568 6.41494L2.58161 9.56803V9.5667ZM5.91508 7.72217L3.41005 8.98475L3.8817 6.34695C3.89275 6.28623 3.88842 6.22377 3.86911 6.16507C3.84979 6.10638 3.81608 6.05323 3.77092 6.0103L1.79598 4.16378L4.54975 3.77981C4.60677 3.77136 4.66086 3.74948 4.70737 3.71605C4.75389 3.68261 4.79145 3.63861 4.81684 3.58782L6.07071 1.14934L7.32595 3.58782C7.35134 3.63861 7.3889 3.68261 7.43541 3.71605C7.48193 3.74948 7.53601 3.77136 7.59304 3.77981L10.3468 4.16311L8.37187 6.00964C8.32661 6.05263 8.29283 6.10589 8.27351 6.16471C8.25419 6.22354 8.24992 6.28612 8.26109 6.34695L8.73274 8.98475L6.2277 7.72217C6.17926 7.69768 6.12555 7.6849 6.07105 7.6849C6.01655 7.6849 5.96352 7.69768 5.91508 7.72217Z" fill="#F7BA2D"/>
</svg>
